# xmcd
#
# Track frame offsets: 
#        150
#        13888
#        25505
#        38725
#        52993
#        64470
#        74936
#        87938
#        101450
#        112571
#        125738
#        141057
#        151858
#        164901
#        178314
#        193199
#        206396
#        219311
#        234444
#        248451
#
# Disc length: 3504 seconds
#
# Revision: 0
# Processed by: cddbd v1.5.2PL0 Copyright (c) Steve Scherf et al.
# Submitted via: ExactAudioCopyFreeDBPlugin 1.0
#
DISCID=190dae14
DTITLE=Nat King Cole - Get Your Kicks On Route 66
DYEAR=2001
DGENRE=Oldies
TTITLE0=Get Your Kicks On Route 66
TTITLE1=Straighten Up And Fly Right
TTITLE2=It's Only A Paper Moon
TTITLE3=Sweet Lorraine
TTITLE4=Honeysuckle Rose
TTITLE5=Sweet Georgia Brown
TTITLE6=Nature Boy
TTITLE7=What Is This Thing Called Love?
TTITLE8=Jumpin' At Capitol
TTITLE9=I'm A Shy Guy
TTITLE10=Embraceable You
TTITLE11=When I Take My Sugar To Tea
TTITLE12=For Sentimental Reasons
TTITLE13=Hit The Jive Jack
TTITLE14=The Frim From Sauce
TTITLE15=How Deep Is The Ocean
TTITLE16=Besame Mucho
TTITLE17=The Man I Love
TTITLE18=Barcarolle
TTITLE19=The Christmas Song
EXTD=
EXTT0=
EXTT1=
EXTT2=
EXTT3=
EXTT4=
EXTT5=
EXTT6=
EXTT7=
EXTT8=
EXTT9=
EXTT10=
EXTT11=
EXTT12=
EXTT13=
EXTT14=
EXTT15=
EXTT16=
EXTT17=
EXTT18=
EXTT19=
PLAYORDER=
